<?xml version="1.0" encoding="UTF-8"?>
<!DOCTYPE svg PUBLIC "-//W3C//DTD SVG 1.1//EN" "http://www.w3.org/Graphics/SVG/1.1/DTD/svg11.dtd">
<svg xmlns="http://www.w3.org/2000/svg" version="1.1" width="512px" height="512px" style="shape-rendering:geometricPrecision; text-rendering:geometricPrecision; image-rendering:optimizeQuality; fill-rule:evenodd; clip-rule:evenodd" xmlns:xlink="http://www.w3.org/1999/xlink">
<style>
	g {
		fill: #000;
	}
	@media (prefers-color-scheme: dark) {
		g {
		fill: #fff;
		}
	}
</style>
<g><path style="opacity:0.988" d="M 511.5,290.5 C 511.5,308.167 511.5,325.833 511.5,343.5C 510.173,356.091 508.34,368.757 506,381.5C 503.76,398.507 495.593,411.673 481.5,421C 470.078,426.05 458.412,426.717 446.5,423C 438.997,419.418 431.997,415.085 425.5,410C 401.316,389.982 379.316,367.816 359.5,343.5C 353.255,337.879 345.922,334.712 337.5,334C 283.167,333.333 228.833,333.333 174.5,334C 165.884,334.648 158.217,337.648 151.5,343C 130.833,369 107.5,392.333 81.5,413C 75.444,417.696 68.7773,421.363 61.5,424C 31.7855,428.377 13.2855,415.877 6,386.5C 3.20867,372.449 1.042,358.449 -0.5,344.5C -0.5,326.5 -0.5,308.5 -0.5,290.5C 3.76025,234.553 20.9269,182.886 51,135.5C 83.1803,89.5512 126.014,75.3846 179.5,93C 194.883,98.8559 209.216,106.523 222.5,116C 226.683,117.796 231.016,119.129 235.5,120C 248.833,120.667 262.167,120.667 275.5,120C 281.468,118.849 287.134,116.849 292.5,114C 323.157,90.7524 357.491,82.0857 395.5,88C 417.292,93.8106 435.459,105.311 450,122.5C 479.892,162.311 498.892,206.978 507,256.5C 508.681,267.96 510.181,279.293 511.5,290.5 Z M 349.5,143.5 C 367.108,142.383 377.942,150.383 382,167.5C 382.487,182.344 375.653,192.177 361.5,197C 339.189,199.021 328.022,188.854 328,166.5C 330.909,154.76 338.076,147.094 349.5,143.5 Z M 135.5,162.5 C 143.498,162.033 151.165,163.367 158.5,166.5C 159.499,178.148 159.832,189.814 159.5,201.5C 170.853,201.168 182.186,201.501 193.5,202.5C 197.068,207.039 198.735,212.205 198.5,218C 198.34,224.136 197.007,229.97 194.5,235.5C 182.5,235.5 170.5,235.5 158.5,235.5C 158.667,246.838 158.5,258.172 158,269.5C 146.635,277.398 135.301,277.398 124,269.5C 123.5,258.172 123.333,246.838 123.5,235.5C 112.147,235.832 100.814,235.499 89.5,234.5C 84.1667,223.833 84.1667,213.167 89.5,202.5C 101.482,201.501 113.482,201.168 125.5,201.5C 125.168,189.482 125.501,177.482 126.5,165.5C 129.582,164.365 132.582,163.365 135.5,162.5 Z M 418.5,184.5 C 439.667,184.17 450.5,194.503 451,215.5C 445,235.787 431.834,242.621 411.5,236C 396.236,225.347 393.069,211.847 402,195.5C 406.632,190.34 412.132,186.673 418.5,184.5 Z M 352.5,219.5 C 370.267,220.214 380.267,229.38 382.5,247C 380.583,263.75 371.25,272.917 354.5,274.5C 333.937,271.039 325.437,259.039 329,238.5C 333.378,227.747 341.211,221.413 352.5,219.5 Z"/></g>
</svg>
